<svg width="24" height="24" viewBox="0 0 24 24" fill="none" xmlns="http://www.w3.org/2000/svg">
<path fill-rule="evenodd" clip-rule="evenodd" d="M7 0H5V5.12602C3.27477 5.57006 2 7.13616 2 9C2 11.2091 3.79086 13 6 13C8.20914 13 10 11.2091 10 9C10 7.13616 8.72523 5.57006 7 5.12602V0ZM4 9C4 7.89543 4.89543 7 6 7C7.10457 7 8 7.89543 8 9C8 10.1046 7.10457 11 6 11C4.89543 11 4 10.1046 4 9Z" fill="#13183A"/>
<path fill-rule="evenodd" clip-rule="evenodd" d="M20 0H18V5.17071C16.8348 5.58254 16 6.69378 16 8C16 9.65685 17.3431 11 19 11C20.6569 11 22 9.65685 22 8C22 6.69378 21.1652 5.58254 20 5.17071V0ZM20 8C20 8.55228 19.5523 9 19 9C18.4477 9 18 8.55228 18 8C18 7.44772 18.4477 7 19 7C19.5523 7 20 7.44772 20 8Z" fill="#13183A"/>
<path fill-rule="evenodd" clip-rule="evenodd" d="M14.0002 0H11.0002V11.242L6.29304 15.9491L5.58594 16.6562L6.29304 17.3634L11.9499 23.0202L12.657 23.7273L13.3641 23.0202L19.021 17.3634L19.7281 16.6562L19.021 15.9491L14.0002 10.9283V0ZM12.0706 13H13.2434L16.8996 16.6562L12.657 20.8989L8.41436 16.6562L12.0706 13Z" fill="#13183A"/>
</svg>
