<svg width="24" height="24" viewBox="0 0 24 24" fill="none" xmlns="http://www.w3.org/2000/svg">
<g clip-path="url(#clip0_391_7045)">
<path d="M23.4941 11.6419C23.8901 10.6949 23.9501 9.67591 23.6691 8.69491C23.3181 7.46791 22.4541 6.44591 21.2981 5.89091C21.1041 5.79791 20.9651 5.62591 20.9451 5.45291C20.8011 4.20891 20.1721 3.11591 19.1741 2.37391C18.1901 1.64191 16.9781 1.35191 15.7571 1.55891C15.5761 1.59091 15.3421 1.49791 15.1601 1.31691C14.3141 0.469906 13.1931 0.00390625 12.0031 0.00390625C10.8131 0.00390625 9.69211 0.469906 8.84511 1.31591C8.66411 1.49591 8.43711 1.58591 8.24811 1.55791C7.02911 1.35191 5.81711 1.64191 4.83311 2.37291C3.83411 3.11491 3.20511 4.20791 3.06111 5.45191C3.04111 5.62391 2.90311 5.79591 2.70911 5.88991C1.55311 6.44491 0.688105 7.46791 0.337105 8.69391C0.0561052 9.67491 0.117105 10.6939 0.512105 11.6419C0.612105 11.8809 0.612105 12.1339 0.512105 12.3719C0.116105 13.3199 0.0561052 14.3389 0.337105 15.3179C0.688105 16.5459 1.55211 17.5679 2.70911 18.1239C2.90011 18.2159 3.04111 18.3919 3.06111 18.5619C3.20511 19.8049 3.8341 20.8989 4.8321 21.6409C5.8161 22.3719 7.02911 22.6619 8.24611 22.4559C8.4341 22.4249 8.66311 22.5179 8.8441 22.6989C9.6911 23.5439 10.8121 24.0099 12.0021 24.0099C13.1921 24.0099 14.3131 23.5439 15.1601 22.6989C15.3431 22.5169 15.5721 22.4169 15.7571 22.4559C16.9741 22.6599 18.1871 22.3729 19.1731 21.6409C20.1721 20.8989 20.8011 19.8049 20.9451 18.5609C20.9651 18.3919 21.1061 18.2159 21.2971 18.1239C22.4541 17.5679 23.3181 16.5459 23.6691 15.3189C23.9501 14.3389 23.8891 13.3199 23.4941 12.3719C23.3941 12.1329 23.3941 11.8799 23.4941 11.6409V11.6419ZM21.6481 13.1429C21.8671 13.6669 21.9011 14.2299 21.7461 14.7699C21.5491 15.4579 21.0821 16.0089 20.4321 16.3219C19.6211 16.7109 19.0571 17.4809 18.9591 18.3319C18.8791 19.0219 18.5321 19.6269 17.9811 20.0359C17.4371 20.4399 16.7671 20.5999 16.0911 20.4839C15.2641 20.3459 14.3881 20.6439 13.7471 21.2839C12.8091 22.2219 11.1961 22.2209 10.2581 21.2839C9.72111 20.7469 9.0191 20.4499 8.3181 20.4499C8.1831 20.4499 8.0471 20.4609 7.9141 20.4829C7.2401 20.5989 6.56911 20.4389 6.0251 20.0349C5.4751 19.6259 5.1281 19.0209 5.0481 18.3319C4.9491 17.4799 4.38511 16.7099 3.57511 16.3209C2.92411 16.0089 2.45711 15.4569 2.26011 14.7679C2.10511 14.2289 2.13911 13.6659 2.35811 13.1419C2.66411 12.4099 2.66411 11.6029 2.35811 10.8709C2.13911 10.3459 2.10511 9.78391 2.26011 9.24391C2.45711 8.55591 2.92411 8.00491 3.57511 7.69191C4.38611 7.30191 4.9501 6.53191 5.0481 5.68091C5.1281 4.99191 5.4751 4.38691 6.0261 3.97791C6.5681 3.57391 7.2391 3.41591 7.9141 3.52891C8.7451 3.67091 9.61911 3.36991 10.2581 2.72991C11.1961 1.79291 12.8091 1.79291 13.7471 2.72991C14.3891 3.37091 15.2661 3.66791 16.0911 3.52891C16.7671 3.41491 17.4371 3.57391 17.9811 3.97791C18.5311 4.38691 18.8781 4.99191 18.9581 5.68091C19.0561 6.53191 19.6211 7.30191 20.4311 7.69191C21.0821 8.00391 21.5491 8.55591 21.7461 9.24391C21.9011 9.78391 21.8671 10.3469 21.6481 10.8709C21.3421 11.6029 21.3421 12.4109 21.6481 13.1429ZM8.0021 12.5039C8.0021 13.3319 7.3301 14.0039 6.5021 14.0039C5.6741 14.0039 5.0021 13.3319 5.0021 12.5039C5.0021 11.6759 5.6741 11.0039 6.5021 11.0039C7.3301 11.0039 8.0021 11.6759 8.0021 12.5039ZM12.0021 17.5039C12.0021 18.3319 11.3301 19.0039 10.5021 19.0039C9.6741 19.0039 9.0021 18.3319 9.0021 17.5039C9.0021 16.6759 9.6741 16.0039 10.5021 16.0039C11.3301 16.0039 12.0021 16.6759 12.0021 17.5039ZM9.0021 6.50391C9.0021 5.67591 9.6741 5.00391 10.5021 5.00391C11.3301 5.00391 12.0021 5.67591 12.0021 6.50391C12.0021 7.33191 11.3301 8.00391 10.5021 8.00391C9.6741 8.00391 9.0021 7.33191 9.0021 6.50391ZM14.0021 11.5039C14.0021 12.3319 13.3301 13.0039 12.5021 13.0039C11.6741 13.0039 11.0021 12.3319 11.0021 11.5039C11.0021 10.6759 11.6741 10.0039 12.5021 10.0039C13.3301 10.0039 14.0021 10.6759 14.0021 11.5039ZM19.0021 13.5039C19.0021 14.3319 18.3301 15.0039 17.5021 15.0039C16.6741 15.0039 16.0021 14.3319 16.0021 13.5039C16.0021 12.6759 16.6741 12.0039 17.5021 12.0039C18.3301 12.0039 19.0021 12.6759 19.0021 13.5039Z" fill="#13183A"/>
</g>
<defs>
<clipPath id="clip0_391_7045">
<rect width="24" height="24" fill="white"/>
</clipPath>
</defs>
</svg>
