<svg width="24" height="24" viewBox="0 0 24 24" fill="none" xmlns="http://www.w3.org/2000/svg">
<g clip-path="url(#clip0_391_7054)">
<path d="M12.3163 3.07005C12.2171 3.02391 12.1091 3 11.9998 3C11.8904 3 11.7824 3.02391 11.6833 3.07005L0.433272 8.32005C0.300796 8.38189 0.18928 8.48109 0.112439 8.60547C0.0355978 8.72984 -0.00321732 8.87396 0.00076694 9.02011C0.0047512 9.16625 0.0513611 9.30804 0.134864 9.42804C0.218368 9.54805 0.335123 9.64103 0.470772 9.69555L11.7208 14.1956C11.8998 14.2673 12.0997 14.2673 12.2788 14.1956L20.9998 10.7096V19.4996C20.6019 19.4996 20.2204 19.6576 19.9391 19.9389C19.6578 20.2202 19.4998 20.6017 19.4998 20.9996V23.9996H23.9998V20.9996C23.9998 20.6017 23.8417 20.2202 23.5604 19.9389C23.2791 19.6576 22.8976 19.4996 22.4998 19.4996V10.1081L23.5288 9.69555C23.6644 9.64103 23.7812 9.54805 23.8647 9.42804C23.9482 9.30804 23.9948 9.16625 23.9988 9.02011C24.0028 8.87396 23.9639 8.72984 23.8871 8.60547C23.8103 8.48109 23.6987 8.38189 23.5663 8.32005L12.3163 3.07005ZM11.9998 12.6896L2.63677 8.94705L11.9998 4.57755L21.3628 8.94705L11.9998 12.6896Z" fill="#13183A"/>
<path d="M6.26386 13.5481C6.16728 13.5118 6.06424 13.4957 5.96117 13.501C5.85811 13.5062 5.75723 13.5327 5.66487 13.5788C5.57251 13.6248 5.49064 13.6894 5.4244 13.7685C5.35815 13.8477 5.30894 13.9396 5.27986 14.0386L4.52986 16.5886C4.47733 16.7677 4.4934 16.9598 4.57494 17.1276C4.65649 17.2954 4.79765 17.4268 4.97086 17.4961L11.7209 20.1961C11.8999 20.2679 12.0998 20.2679 12.2789 20.1961L19.0289 17.4961C19.2021 17.4268 19.3432 17.2954 19.4248 17.1276C19.5063 16.9598 19.5224 16.7677 19.4699 16.5886L18.7199 14.0386C18.6908 13.9396 18.6416 13.8477 18.5753 13.7685C18.5091 13.6894 18.4272 13.6248 18.3348 13.5788C18.2425 13.5327 18.1416 13.5062 18.0385 13.501C17.9355 13.4957 17.8324 13.5118 17.7359 13.5481L11.9999 15.6991L6.26386 13.5481ZM6.16186 16.3576L6.49186 15.2356L11.7359 17.2021C11.906 17.2661 12.0937 17.2661 12.2639 17.2021L17.5079 15.2356L17.8379 16.3576L11.9999 18.6901L6.16186 16.3576Z" fill="#13183A"/>
</g>
<defs>
<clipPath id="clip0_391_7054">
<rect width="24" height="24" fill="white"/>
</clipPath>
</defs>
</svg>
