<svg width="24" height="24" viewBox="0 0 24 24" fill="none" xmlns="http://www.w3.org/2000/svg">
<g clip-path="url(#clip0_391_7091)">
<path d="M22.922 1.70025C22.5852 1.41798 22.1903 1.21354 21.7654 1.10152C21.3405 0.98951 20.8961 0.972684 20.464 1.05225L14.284 2.17525C13.3997 2.3347 12.5949 2.78779 12 3.46125C11.4055 2.78668 10.6007 2.3325 9.716 2.17225L3.536 1.04925C3.10377 0.970759 2.65957 0.988155 2.2348 1.1002C1.81004 1.21225 1.41506 1.41623 1.07778 1.6977C0.740505 1.97918 0.469162 2.33129 0.282926 2.72916C0.0966906 3.12703 0.000106745 3.56095 0 4.00025L0 20.8342L12 23.0173L24 20.8342V4.00025C24 3.56127 23.9035 3.12766 23.7172 2.73017C23.5309 2.33269 23.2594 1.98107 22.922 1.70025ZM11 20.8002L2 19.1663V4.00025C2.00012 3.85384 2.0324 3.70924 2.09454 3.57667C2.15668 3.4441 2.24717 3.32679 2.35962 3.23304C2.47208 3.13928 2.60374 3.07136 2.74533 3.03407C2.88691 2.99678 3.03495 2.99104 3.179 3.01725L9.358 4.14025C9.81882 4.22409 10.2356 4.46701 10.5357 4.82666C10.8357 5.1863 11.0001 5.63986 11 6.10825V20.8002ZM22 19.1642L13 20.8002V6.10825C12.9999 5.63986 13.1643 5.1863 13.4643 4.82666C13.7644 4.46701 14.1812 4.22409 14.642 4.14025L20.821 3.01725C20.965 2.99104 21.1131 2.99678 21.2547 3.03407C21.3963 3.07136 21.5279 3.13928 21.6404 3.23304C21.7528 3.32679 21.8433 3.4441 21.9055 3.57667C21.9676 3.70924 21.9999 3.85384 22 4.00025V19.1642Z" fill="#13183A"/>
</g>
<defs>
<clipPath id="clip0_391_7091">
<rect width="24" height="24" fill="white"/>
</clipPath>
</defs>
</svg>
